<svg id="fi_2558183" enable-background="new 0 0 512 512" height="512" viewBox="0 0 512 512" width="512"
  xmlns="http://www.w3.org/2000/svg">
  <g>
    <path
      d="m511.952 359.633c-.94-33.519-15.313-64.281-40.472-86.62-4.501-3.996-12.678-14.619-19.64-11.167-23.549 11.687-51.15 9.564-72.366-4.668l118.773-122.413c11.314-11.827 16.058-28.418 12.69-44.383l-4.743-22.481c-1.998-9.467-16.673-6.369-14.677 3.097l.758 3.595-143.81 148.589c-8.351-14.444-9.795-27.788-4.807-41.355 1.063-2.894.249-6.143-2.055-8.192-22.562-20.067-49.012-31.063-76.491-31.799-23.906-.645-47.573 6.302-68.658 20.066l-95.052-88.182 10.968-10.898c6.863-6.819-3.71-17.46-10.572-10.641l-10.608 10.54c-2.654-3.414-5.03-7.019-7.115-10.785l13.727-13.64c6.863-6.819-3.71-17.46-10.572-10.641l-9.556 9.495c-6.05-18.773-26.207-36.41-46.706-33.733-15.953 2.085-28.562 14.626-30.663 30.498-2.708 20.458 15.156 40.523 33.869 46.459l-9.456 9.396c-6.864 6.82 3.712 17.458 10.572 10.641l13.777-13.688c3.794 2.068 7.425 4.426 10.864 7.059l-10.531 10.463c-6.864 6.82 3.712 17.458 10.573 10.641l11.039-10.969 88.527 94.211c-14.065 20.751-21.17 44.12-20.537 67.796.73 27.318 12.015 53.853 32.632 76.734 2.044 2.269 5.26 3.072 8.13 2.03 14.897-5.407 29.518-3.235 45.585 7.13l-46.994 49.123c-11.314 11.827-16.058 28.418-12.689 44.383l2.348 11.132-40.953 42.809c-6.681 6.984 4.138 17.374 10.839 10.369l43.651-45.63c.003-.004.007-.007.01-.011l76.51-79.978c12.132 20.489 13.389 46.055 2.331 68.055-3.539 7.04 7.154 15.087 11.246 19.637 22.459 24.973 53.38 39.248 87.065 40.193 43.121 1.204 74.377-20.504 103.479-49.422 28.999-28.814 50.968-59.818 49.76-102.845zm-15.94-267.332.249 1.178c2.345 11.115-.964 22.672-8.815 30.879l-119.527 123.189c-4.028-4.053-7.595-7.99-10.71-11.832zm-394.752 21.902 10.49-10.422 136.57 126.7-19.547 19.423zm-49.234-42.831c-6.41-4.528-15.198-4.54-21.437-8.896-8.25-5.76-16.822-15.953-15.414-26.593 1.211-9.152 8.505-16.386 17.736-17.592 9.116-1.194 17.787 4.735 23.531 11.246 6.678 7.57 6.617 17.443 12.262 25.37 7.665 15.627 19.514 27.042 32.041 38.663l-9.76 9.697c-11.733-12.485-23.25-24.286-38.959-31.895zm128.548 371.954-.232-1.098c-2.345-11.114.964-22.672 8.852-30.917l48.227-50.413c3.1 2.648 6.262 5.573 9.499 8.789.704.699 1.39 1.412 2.059 2.134zm102.227 18.351-6.808-7.569c13.91-32.334 6.773-69.947-18.502-95.062-17.648-17.536-44.573-39.222-77.862-30.049-16.193-19.323-25.038-41.178-25.634-63.474-.52-19.453 5.044-38.742 16.104-56.155l53.022 56.427c2.834 3.015 7.819 3.099 10.752.185l30.559-30.365c2.983-2.964 2.898-7.958-.185-10.818l-56.42-52.343c31.685-19.13 77.917-25.649 120.127 9.233-9.194 33.101 12.627 59.857 30.278 77.395 25.266 25.105 63.111 32.183 95.625 18.343l7.664 6.805c22.029 19.56 34.614 46.488 35.437 75.824.82 29.223-10.152 56.707-30.895 77.428l-18.579-18.46c-18.207-18.091-34.431-38.217-48.222-59.821-2.536-3.972-8.265-4.609-11.608-1.285l-30.56 30.365c-3.37 3.348-2.732 9.132 1.287 11.665 21.745 13.705 42.002 29.828 60.21 47.919l18.509 18.391c-4.083 4.029-8.429 7.682-12.996 10.952-20.402-22.647-41.891-33.474-63.953-32.227-28.478 1.63-49.18 23.094-57.788 33.776-7.095-4.812-13.664-10.521-19.562-17.08zm164.945-5.99-18.581-18.463c-16.769-16.662-35.203-31.721-54.902-44.857l17.45-17.338c13.233 19.602 28.409 37.949 45.199 54.632l18.513 18.395c-2.56 2.544-5.119 5.088-7.679 7.631zm-88.612 41.22c-15.43-.433-30.194-4.06-43.586-10.54 7.843-9.246 24.322-25.2 45.461-26.41 16.657-.952 33.472 7.535 50.062 25.235-15.807 8.163-33.536 12.231-51.937 11.715z">
    </path>
    <path
      d="m304.402 383.262c12.099-7.557 13.958-25.013 3.674-34.923l-30.154-29.054c-3.376-3.252-2.755-8.92 1.211-11.398 8.206-5.124.26-17.848-7.945-12.723-12.1 7.557-13.958 25.013-3.674 34.923l30.154 29.054c3.376 3.253 2.755 8.921-1.212 11.398-8.144 5.087-.36 17.909 7.946 12.723z">
    </path>
    <path
      d="m297.356 281.826c3.501 2.216 8.134 1.172 10.348-2.329 2.524-3.99 8.313-4.572 11.603-1.199l29.241 29.962c9.946 10.192 27.401 8.38 35.015-3.657 5.172-8.176-7.504-16.194-12.677-8.019-2.525 3.99-8.312 4.57-11.603 1.199l-29.241-29.962c-9.936-10.181-27.402-8.378-35.015 3.657-2.214 3.501-1.172 8.134 2.329 10.348z">
    </path>
    <path
      d="m209.195 97.204c12.486 0 22.267-8.02 22.267-18.257v-53.391l18.445 18.444c6.841 6.841 17.448-3.766 10.606-10.606l-31.248-31.248c-4.56-4.56-12.803-1.227-12.803 5.303v54.204c-2.269-.623-4.71-.964-7.267-.964-12.486 0-22.267 8.02-22.267 18.257 0 10.238 9.78 18.258 22.267 18.258zm0-21.514c4.769 0 7.267 2.42 7.267 3.257s-2.499 3.257-7.267 3.257-7.267-2.42-7.267-3.257 2.498-3.257 7.267-3.257z">
    </path>
    <path
      d="m90.597 368.318c-4.559-4.561-12.803-1.226-12.803 5.303v54.204c-2.269-.623-4.71-.964-7.267-.964-12.486 0-22.267 8.02-22.267 18.257 0 10.238 9.781 18.257 22.267 18.257s22.267-8.02 22.267-18.257v-53.391l18.445 18.445c6.841 6.841 17.448-3.766 10.606-10.606zm-20.07 80.057c-4.769 0-7.267-2.42-7.267-3.257s2.499-3.257 7.267-3.257 7.267 2.42 7.267 3.257-2.499 3.257-7.267 3.257z">
    </path>
    <path
      d="m85.508 252.884c-2.269-.623-4.71-.964-7.267-.964-12.486 0-22.267 8.02-22.267 18.257 0 10.238 9.781 18.257 22.267 18.257s22.267-8.02 22.267-18.257v-71.497c0-5.523-6.365-9.313-11.247-6.497l-55.974 32.286c-2.322 1.339-3.753 3.816-3.753 6.497v54.204c-2.269-.623-4.71-.964-7.267-.964-12.486-.001-22.267 8.019-22.267 18.256 0 10.238 9.781 18.257 22.267 18.257s22.267-8.02 22.267-18.257v-67.165l40.974-23.633zm-63.241 52.835c-4.769 0-7.267-2.42-7.267-3.257s2.499-3.257 7.267-3.257 7.267 2.42 7.267 3.257-2.498 3.257-7.267 3.257zm55.974-32.285c-4.769 0-7.267-2.42-7.267-3.257s2.499-3.257 7.267-3.257 7.267 2.42 7.267 3.257-2.498 3.257-7.267 3.257z">
    </path>
    <path
      d="m349.238 144.268c12.486 0 22.267-8.02 22.267-18.257v-67.165l40.974-23.634v41.22c-2.27-.623-4.71-.964-7.268-.964-12.486 0-22.267 8.02-22.267 18.257s9.781 18.257 22.267 18.257 22.268-8.02 22.268-18.257v-71.497c0-5.524-6.365-9.312-11.248-6.497l-55.974 32.286c-2.322 1.339-3.752 3.816-3.752 6.497v54.204c-2.269-.623-4.71-.964-7.267-.964-12.486 0-22.268 8.02-22.268 18.257s9.781 18.257 22.268 18.257zm55.973-47.286c-4.769 0-7.267-2.42-7.267-3.257s2.499-3.257 7.267-3.257 7.268 2.42 7.268 3.257-2.499 3.257-7.268 3.257zm-55.973 25.772c4.769 0 7.267 2.42 7.267 3.257s-2.499 3.257-7.267 3.257-7.268-2.42-7.268-3.257 2.499-3.257 7.268-3.257z">
    </path>
  </g>
</svg>