<svg id="fi_3592805" enable-background="new 0 0 55 55" height="512" viewBox="0 0 55 55" width="512"
  xmlns="http://www.w3.org/2000/svg">
  <g>
    <path
      d="m45.4649963 9.3210754h-16.7999878c-.7900391-1.9199829-2.6700439-3.2800293-4.8800049-3.2800293h-14.8599853c-2.9100342 0-5.2700195 2.3600464-5.2700195 5.2700195v4.5999756c1.4400024-1.6199951 3.5499878-2.6399536 5.8800049-2.6399536h35.9299927c2.3300171 0 4.4400024 1.0199585 5.8800049 2.6399536v-.6999512c-.0000001-3.2499999-2.630005-5.8900146-5.880005-5.8900146z">
    </path>
    <path
      d="m45.462616 15.2698669h-35.9227906c-3.2486572 0-5.8822632 2.6335449-5.8822632 5.8822021v21.9246826c0 3.2486572 2.633606 5.8822021 5.8822632 5.8822021h35.9227906c3.2486572 0 5.8822021-2.6335449 5.8822021-5.8822021v-21.9246825c0-3.2486572-2.6335449-5.8822022-5.8822021-5.8822022zm-9.817627 11.6212159-.2999878 9.5599976v.1300049h-.0100098c-.0900269 1.0100098-1.2700195 1.8599854-2.75 1.9400024-1.9528198.118103-3.4035645-1.302063-3.4500122-2.2300415-.0599976-1.0999756 1.1799927-2.0699463 2.7600098-2.1499634.3800049-.0200195.75.0100098 1.0900269.0800171l.2099609-6.960022-8.2099609 1.2199707-.3200073 10.3099976v.1300049h-.0100098c-.0900269 1.0400391-1.289978 1.9100342-2.8200073 1.9899902-1.3928223.0733643-3.4510498-1.0294189-3.5200195-2.2699585-.0599976-1.1400146 1.210022-2.1199951 2.8300171-2.210022.4099731-.0200195.7999878.0100098 1.1599731.1000366.3672485-11.8109741.2966309-9.2036743.3300171-10.2400513.0200195-.7999878.6199951-1.4699707 1.4100342-1.5899658 9.666626-1.4336548 9.3153076-1.4000244 9.5199585-1.4000244.8231201 0 2.1647949.9696045 2.1300049 2.1000366z">
    </path>
  </g>
</svg>